<svg width="261" height="50" viewBox="0 0 261 50" fill="none" xmlns="http://www.w3.org/2000/svg">
<path d="M60.1962 15.1H64.3062V30.76H71.9262V34H60.1962V15.1ZM74.1994 20.95C75.0594 20.45 75.9694 20.07 76.9294 19.81C77.8894 19.53 78.9094 19.39 79.9894 19.39C80.8494 19.39 81.6294 19.49 82.3294 19.69C83.0494 19.89 83.6594 20.21 84.1594 20.65C84.6794 21.07 85.0694 21.62 85.3294 22.3C85.6094 22.96 85.7494 23.76 85.7494 24.7V34H82.6594L82.2994 32.53H82.1794C81.7194 33.09 81.1294 33.53 80.4094 33.85C79.7094 34.17 78.8894 34.33 77.9494 34.33C77.1694 34.33 76.4794 34.22 75.8794 34C75.2794 33.76 74.7694 33.45 74.3494 33.07C73.9294 32.67 73.6094 32.2 73.3894 31.66C73.1894 31.12 73.0894 30.54 73.0894 29.92C73.0894 29.1 73.2594 28.4 73.5994 27.82C73.9594 27.22 74.4494 26.73 75.0694 26.35C75.6894 25.97 76.4094 25.69 77.2294 25.51C78.0694 25.33 78.9694 25.24 79.9294 25.24H81.7294V24.37C81.7294 23.71 81.5194 23.23 81.0994 22.93C80.6994 22.61 80.1294 22.45 79.3894 22.45C78.8094 22.45 78.2094 22.54 77.5894 22.72C76.9894 22.9 76.3194 23.19 75.5794 23.59L74.1994 20.95ZM81.7594 27.73L80.4694 27.76C79.2494 27.8 78.3994 28.01 77.9194 28.39C77.4394 28.75 77.1994 29.19 77.1994 29.71C77.1994 30.39 77.3994 30.86 77.7994 31.12C78.2194 31.36 78.6894 31.48 79.2094 31.48C79.7294 31.48 80.2194 31.33 80.6794 31.03C81.1594 30.73 81.5194 30.38 81.7594 29.98V27.73ZM89.1352 34V19.69H92.2252L92.6752 22.27C93.0152 21.51 93.5552 20.84 94.2952 20.26C95.0352 19.68 95.9652 19.39 97.0852 19.39C97.5452 19.39 97.9552 19.44 98.3152 19.54C98.6752 19.64 98.9752 19.76 99.2152 19.9L98.5552 23.05C98.3352 22.93 98.0552 22.83 97.7152 22.75C97.3752 22.65 96.9752 22.6 96.5152 22.6C95.5352 22.6 94.7152 22.93 94.0552 23.59C93.4152 24.23 93.0952 25.29 93.0952 26.77V34H89.1352ZM100.625 20.95C101.485 20.45 102.395 20.07 103.355 19.81C104.315 19.53 105.335 19.39 106.415 19.39C107.275 19.39 108.055 19.49 108.755 19.69C109.475 19.89 110.085 20.21 110.585 20.65C111.105 21.07 111.495 21.62 111.755 22.3C112.035 22.96 112.175 23.76 112.175 24.7V34H109.085L108.725 32.53H108.605C108.145 33.09 107.555 33.53 106.835 33.85C106.135 34.17 105.315 34.33 104.375 34.33C103.595 34.33 102.905 34.22 102.305 34C101.705 33.76 101.195 33.45 100.775 33.07C100.355 32.67 100.035 32.2 99.8152 31.66C99.6152 31.12 99.5152 30.54 99.5152 29.92C99.5152 29.1 99.6852 28.4 100.025 27.82C100.385 27.22 100.875 26.73 101.495 26.35C102.115 25.97 102.835 25.69 103.655 25.51C104.495 25.33 105.395 25.24 106.355 25.24H108.155V24.37C108.155 23.71 107.945 23.23 107.525 22.93C107.125 22.61 106.555 22.45 105.815 22.45C105.235 22.45 104.635 22.54 104.015 22.72C103.415 22.9 102.745 23.19 102.005 23.59L100.625 20.95ZM108.185 27.73L106.895 27.76C105.675 27.8 104.825 28.01 104.345 28.39C103.865 28.75 103.625 29.19 103.625 29.71C103.625 30.39 103.825 30.86 104.225 31.12C104.645 31.36 105.115 31.48 105.635 31.48C106.155 31.48 106.645 31.33 107.105 31.03C107.585 30.73 107.945 30.38 108.185 29.98V27.73ZM124.295 19.69H128.525L123.455 34H118.835L113.915 19.69H118.175L120.275 26.83L121.145 31.15H121.265L122.135 26.83L124.295 19.69ZM143.047 27.88H133.537V28C133.537 29.14 133.937 29.99 134.737 30.55C135.537 31.11 136.567 31.39 137.827 31.39C138.627 31.39 139.327 31.31 139.927 31.15C140.547 30.99 141.107 30.8 141.607 30.58L142.327 33.37C141.787 33.63 141.107 33.85 140.287 34.03C139.467 34.23 138.497 34.33 137.377 34.33C136.297 34.33 135.277 34.19 134.317 33.91C133.377 33.61 132.547 33.16 131.827 32.56C131.127 31.96 130.567 31.2 130.147 30.28C129.727 29.36 129.517 28.26 129.517 26.98C129.517 25.84 129.687 24.81 130.027 23.89C130.367 22.95 130.847 22.15 131.467 21.49C132.107 20.83 132.867 20.32 133.747 19.96C134.627 19.58 135.607 19.39 136.687 19.39C138.627 19.39 140.167 19.98 141.307 21.16C142.467 22.34 143.047 23.99 143.047 26.11V27.88ZM138.967 25.15C138.967 24.77 138.917 24.4 138.817 24.04C138.737 23.68 138.597 23.37 138.397 23.11C138.197 22.83 137.947 22.61 137.647 22.45C137.347 22.29 136.977 22.21 136.537 22.21C135.737 22.21 135.077 22.48 134.557 23.02C134.037 23.56 133.727 24.29 133.627 25.21L138.967 25.15ZM145.974 34V12.58H149.904V34H145.974ZM156.348 15.1L159.498 24.76C159.598 25.08 159.718 25.47 159.858 25.93C159.998 26.37 160.138 26.83 160.278 27.31C160.418 27.79 160.548 28.27 160.668 28.75C160.808 29.23 160.918 29.66 160.998 30.04H161.088C161.248 29.28 161.478 28.41 161.778 27.43C162.098 26.43 162.388 25.53 162.648 24.73L165.828 15.1H170.058L163.308 34H158.838L151.998 15.1H156.348ZM181.256 19.69H185.246V34H182.276L181.856 32.38H181.736C181.516 32.6 181.256 32.83 180.956 33.07C180.676 33.29 180.336 33.5 179.936 33.7C179.556 33.88 179.116 34.03 178.616 34.15C178.136 34.27 177.596 34.33 176.996 34.33C175.456 34.33 174.236 33.9 173.336 33.04C172.456 32.18 172.016 30.91 172.016 29.23V19.69H176.006V28.9C176.006 29.76 176.206 30.38 176.606 30.76C177.026 31.14 177.556 31.33 178.196 31.33C178.916 31.33 179.526 31.18 180.026 30.88C180.546 30.58 180.956 30.23 181.256 29.83V19.69ZM201.582 27.88H192.072V28C192.072 29.14 192.472 29.99 193.272 30.55C194.072 31.11 195.102 31.39 196.362 31.39C197.162 31.39 197.862 31.31 198.462 31.15C199.082 30.99 199.642 30.8 200.142 30.58L200.862 33.37C200.322 33.63 199.642 33.85 198.822 34.03C198.002 34.23 197.032 34.33 195.912 34.33C194.832 34.33 193.812 34.19 192.852 33.91C191.912 33.61 191.082 33.16 190.362 32.56C189.662 31.96 189.102 31.2 188.682 30.28C188.262 29.36 188.052 28.26 188.052 26.98C188.052 25.84 188.222 24.81 188.562 23.89C188.902 22.95 189.382 22.15 190.002 21.49C190.642 20.83 191.402 20.32 192.282 19.96C193.162 19.58 194.142 19.39 195.222 19.39C197.162 19.39 198.702 19.98 199.842 21.16C201.002 22.34 201.582 23.99 201.582 26.11V27.88ZM197.502 25.15C197.502 24.77 197.452 24.4 197.352 24.04C197.272 23.68 197.132 23.37 196.932 23.11C196.732 22.83 196.482 22.61 196.182 22.45C195.882 22.29 195.512 22.21 195.072 22.21C194.272 22.21 193.612 22.48 193.092 23.02C192.572 23.56 192.262 24.29 192.162 25.21L197.502 25.15Z" fill="white"/>
<path d="M217.816 14.77C219.036 14.77 220.116 14.89 221.056 15.13C221.996 15.37 222.836 15.68 223.576 16.06L222.646 19.12C221.826 18.72 221.036 18.42 220.276 18.22C219.516 18 218.776 17.89 218.056 17.89C217.096 17.89 216.346 18.08 215.806 18.46C215.286 18.84 215.026 19.35 215.026 19.99C215.026 20.65 215.256 21.15 215.716 21.49C216.176 21.83 216.916 22.16 217.936 22.48L219.736 23.05C221.236 23.55 222.406 24.26 223.246 25.18C224.106 26.1 224.536 27.23 224.536 28.57C224.536 29.37 224.386 30.12 224.086 30.82C223.786 31.52 223.336 32.13 222.736 32.65C222.136 33.17 221.386 33.58 220.486 33.88C219.586 34.18 218.536 34.33 217.336 34.33C215.076 34.33 213.006 33.87 211.126 32.95L212.056 29.89C212.916 30.31 213.756 30.64 214.576 30.88C215.396 31.1 216.256 31.21 217.156 31.21C218.216 31.21 219.016 31.02 219.556 30.64C220.096 30.24 220.366 29.69 220.366 28.99C220.366 28.75 220.316 28.52 220.216 28.3C220.136 28.06 219.976 27.84 219.736 27.64C219.496 27.42 219.166 27.21 218.746 27.01C218.346 26.79 217.816 26.58 217.156 26.38L215.566 25.84C214.866 25.6 214.226 25.32 213.646 25C213.066 24.68 212.566 24.31 212.146 23.89C211.746 23.47 211.426 22.98 211.186 22.42C210.966 21.84 210.856 21.17 210.856 20.41C210.856 19.59 211.006 18.84 211.306 18.16C211.606 17.46 212.046 16.86 212.626 16.36C213.226 15.86 213.956 15.47 214.816 15.19C215.696 14.91 216.696 14.77 217.816 14.77ZM227.78 15.1H234.41C235.51 15.1 236.5 15.23 237.38 15.49C238.28 15.75 239.04 16.13 239.66 16.63C240.3 17.13 240.79 17.74 241.13 18.46C241.47 19.16 241.64 19.97 241.64 20.89C241.64 21.97 241.44 22.9 241.04 23.68C240.64 24.46 240.09 25.11 239.39 25.63C238.71 26.13 237.91 26.51 236.99 26.77C236.07 27.01 235.09 27.13 234.05 27.13H231.89V34H227.78V15.1ZM231.89 23.98H233.57C234.09 23.98 234.58 23.94 235.04 23.86C235.52 23.76 235.93 23.6 236.27 23.38C236.63 23.14 236.91 22.84 237.11 22.48C237.31 22.1 237.41 21.63 237.41 21.07C237.41 20.09 237.08 19.37 236.42 18.91C235.76 18.45 234.92 18.22 233.9 18.22H231.89V23.98ZM247.76 26.62H252.56L251.69 24.1C251.41 23.32 251.15 22.54 250.91 21.76C250.67 20.96 250.44 20.16 250.22 19.36H250.16C249.94 20.12 249.7 20.9 249.44 21.7C249.18 22.48 248.91 23.28 248.63 24.1L247.76 26.62ZM248.12 15.1H252.38L259.37 34H255.02L253.55 29.65H246.83L245.36 34H241.07L248.12 15.1Z" fill="#41B883"/>
<circle cx="25" cy="25" r="25" fill="#99EBCD"/>
<circle cx="25.1953" cy="23.4375" r="23.4375" fill="#34495E"/>
</svg>
