<svg width="262" height="50" viewBox="0 0 262 50" fill="none" xmlns="http://www.w3.org/2000/svg">
<path d="M60.57 15.1H64.68V30.76H72.3V34H60.57V15.1ZM74.5732 20.95C75.4332 20.45 76.3432 20.07 77.3032 19.81C78.2632 19.53 79.2832 19.39 80.3632 19.39C81.2232 19.39 82.0032 19.49 82.7032 19.69C83.4232 19.89 84.0332 20.21 84.5332 20.65C85.0532 21.07 85.4432 21.62 85.7032 22.3C85.9832 22.96 86.1232 23.76 86.1232 24.7V34H83.0332L82.6732 32.53H82.5532C82.0932 33.09 81.5032 33.53 80.7832 33.85C80.0832 34.17 79.2632 34.33 78.3232 34.33C77.5432 34.33 76.8532 34.22 76.2532 34C75.6532 33.76 75.1432 33.45 74.7232 33.07C74.3032 32.67 73.9832 32.2 73.7632 31.66C73.5632 31.12 73.4632 30.54 73.4632 29.92C73.4632 29.1 73.6332 28.4 73.9732 27.82C74.3332 27.22 74.8232 26.73 75.4432 26.35C76.0632 25.97 76.7832 25.69 77.6032 25.51C78.4432 25.33 79.3432 25.24 80.3032 25.24H82.1032V24.37C82.1032 23.71 81.8932 23.23 81.4732 22.93C81.0732 22.61 80.5032 22.45 79.7632 22.45C79.1832 22.45 78.5832 22.54 77.9632 22.72C77.3632 22.9 76.6932 23.19 75.9532 23.59L74.5732 20.95ZM82.1332 27.73L80.8432 27.76C79.6232 27.8 78.7732 28.01 78.2932 28.39C77.8132 28.75 77.5732 29.19 77.5732 29.71C77.5732 30.39 77.7732 30.86 78.1732 31.12C78.5932 31.36 79.0632 31.48 79.5832 31.48C80.1032 31.48 80.5932 31.33 81.0532 31.03C81.5332 30.73 81.8932 30.38 82.1332 29.98V27.73ZM89.509 34V19.69H92.599L93.049 22.27C93.389 21.51 93.929 20.84 94.669 20.26C95.409 19.68 96.339 19.39 97.459 19.39C97.919 19.39 98.329 19.44 98.689 19.54C99.049 19.64 99.349 19.76 99.589 19.9L98.929 23.05C98.709 22.93 98.429 22.83 98.089 22.75C97.749 22.65 97.349 22.6 96.889 22.6C95.909 22.6 95.089 22.93 94.429 23.59C93.789 24.23 93.469 25.29 93.469 26.77V34H89.509ZM100.999 20.95C101.859 20.45 102.769 20.07 103.729 19.81C104.689 19.53 105.709 19.39 106.789 19.39C107.649 19.39 108.429 19.49 109.129 19.69C109.849 19.89 110.459 20.21 110.959 20.65C111.479 21.07 111.869 21.62 112.129 22.3C112.409 22.96 112.549 23.76 112.549 24.7V34H109.459L109.099 32.53H108.979C108.519 33.09 107.929 33.53 107.209 33.85C106.509 34.17 105.689 34.33 104.749 34.33C103.969 34.33 103.279 34.22 102.679 34C102.079 33.76 101.569 33.45 101.149 33.07C100.729 32.67 100.409 32.2 100.189 31.66C99.989 31.12 99.889 30.54 99.889 29.92C99.889 29.1 100.059 28.4 100.399 27.82C100.759 27.22 101.249 26.73 101.869 26.35C102.489 25.97 103.209 25.69 104.029 25.51C104.869 25.33 105.769 25.24 106.729 25.24H108.529V24.37C108.529 23.71 108.319 23.23 107.899 22.93C107.499 22.61 106.929 22.45 106.189 22.45C105.609 22.45 105.009 22.54 104.389 22.72C103.789 22.9 103.119 23.19 102.379 23.59L100.999 20.95ZM108.559 27.73L107.269 27.76C106.049 27.8 105.199 28.01 104.719 28.39C104.239 28.75 103.999 29.19 103.999 29.71C103.999 30.39 104.199 30.86 104.599 31.12C105.019 31.36 105.489 31.48 106.009 31.48C106.529 31.48 107.019 31.33 107.479 31.03C107.959 30.73 108.319 30.38 108.559 29.98V27.73ZM124.668 19.69H128.898L123.828 34H119.208L114.288 19.69H118.548L120.648 26.83L121.518 31.15H121.638L122.508 26.83L124.668 19.69ZM143.421 27.88H133.911V28C133.911 29.14 134.311 29.99 135.111 30.55C135.911 31.11 136.941 31.39 138.201 31.39C139.001 31.39 139.701 31.31 140.301 31.15C140.921 30.99 141.481 30.8 141.981 30.58L142.701 33.37C142.161 33.63 141.481 33.85 140.661 34.03C139.841 34.23 138.871 34.33 137.751 34.33C136.671 34.33 135.651 34.19 134.691 33.91C133.751 33.61 132.921 33.16 132.201 32.56C131.501 31.96 130.941 31.2 130.521 30.28C130.101 29.36 129.891 28.26 129.891 26.98C129.891 25.84 130.061 24.81 130.401 23.89C130.741 22.95 131.221 22.15 131.841 21.49C132.481 20.83 133.241 20.32 134.121 19.96C135.001 19.58 135.981 19.39 137.061 19.39C139.001 19.39 140.541 19.98 141.681 21.16C142.841 22.34 143.421 23.99 143.421 26.11V27.88ZM139.341 25.15C139.341 24.77 139.291 24.4 139.191 24.04C139.111 23.68 138.971 23.37 138.771 23.11C138.571 22.83 138.321 22.61 138.021 22.45C137.721 22.29 137.351 22.21 136.911 22.21C136.111 22.21 135.451 22.48 134.931 23.02C134.411 23.56 134.101 24.29 134.001 25.21L139.341 25.15ZM146.348 34V12.58H150.278V34H146.348ZM156.721 15.1L159.871 24.76C159.971 25.08 160.091 25.47 160.231 25.93C160.371 26.37 160.511 26.83 160.651 27.31C160.791 27.79 160.921 28.27 161.041 28.75C161.181 29.23 161.291 29.66 161.371 30.04H161.461C161.621 29.28 161.851 28.41 162.151 27.43C162.471 26.43 162.761 25.53 163.021 24.73L166.201 15.1H170.431L163.681 34H159.211L152.371 15.1H156.721ZM181.63 19.69H185.62V34H182.65L182.23 32.38H182.11C181.89 32.6 181.63 32.83 181.33 33.07C181.05 33.29 180.71 33.5 180.31 33.7C179.93 33.88 179.49 34.03 178.99 34.15C178.51 34.27 177.97 34.33 177.37 34.33C175.83 34.33 174.61 33.9 173.71 33.04C172.83 32.18 172.39 30.91 172.39 29.23V19.69H176.38V28.9C176.38 29.76 176.58 30.38 176.98 30.76C177.4 31.14 177.93 31.33 178.57 31.33C179.29 31.33 179.9 31.18 180.4 30.88C180.92 30.58 181.33 30.23 181.63 29.83V19.69ZM201.956 27.88H192.446V28C192.446 29.14 192.846 29.99 193.646 30.55C194.446 31.11 195.476 31.39 196.736 31.39C197.536 31.39 198.236 31.31 198.836 31.15C199.456 30.99 200.016 30.8 200.516 30.58L201.236 33.37C200.696 33.63 200.016 33.85 199.196 34.03C198.376 34.23 197.406 34.33 196.286 34.33C195.206 34.33 194.186 34.19 193.226 33.91C192.286 33.61 191.456 33.16 190.736 32.56C190.036 31.96 189.476 31.2 189.056 30.28C188.636 29.36 188.426 28.26 188.426 26.98C188.426 25.84 188.596 24.81 188.936 23.89C189.276 22.95 189.756 22.15 190.376 21.49C191.016 20.83 191.776 20.32 192.656 19.96C193.536 19.58 194.516 19.39 195.596 19.39C197.536 19.39 199.076 19.98 200.216 21.16C201.376 22.34 201.956 23.99 201.956 26.11V27.88ZM197.876 25.15C197.876 24.77 197.826 24.4 197.726 24.04C197.646 23.68 197.506 23.37 197.306 23.11C197.106 22.83 196.856 22.61 196.556 22.45C196.256 22.29 195.886 22.21 195.446 22.21C194.646 22.21 193.986 22.48 193.466 23.02C192.946 23.56 192.636 24.29 192.536 25.21L197.876 25.15Z" fill="#003E27"/>
<path d="M218.19 14.77C219.41 14.77 220.49 14.89 221.43 15.13C222.37 15.37 223.21 15.68 223.95 16.06L223.02 19.12C222.2 18.72 221.41 18.42 220.65 18.22C219.89 18 219.15 17.89 218.43 17.89C217.47 17.89 216.72 18.08 216.18 18.46C215.66 18.84 215.4 19.35 215.4 19.99C215.4 20.65 215.63 21.15 216.09 21.49C216.55 21.83 217.29 22.16 218.31 22.48L220.11 23.05C221.61 23.55 222.78 24.26 223.62 25.18C224.48 26.1 224.91 27.23 224.91 28.57C224.91 29.37 224.76 30.12 224.46 30.82C224.16 31.52 223.71 32.13 223.11 32.65C222.51 33.17 221.76 33.58 220.86 33.88C219.96 34.18 218.91 34.33 217.71 34.33C215.45 34.33 213.38 33.87 211.5 32.95L212.43 29.89C213.29 30.31 214.13 30.64 214.95 30.88C215.77 31.1 216.63 31.21 217.53 31.21C218.59 31.21 219.39 31.02 219.93 30.64C220.47 30.24 220.74 29.69 220.74 28.99C220.74 28.75 220.69 28.52 220.59 28.3C220.51 28.06 220.35 27.84 220.11 27.64C219.87 27.42 219.54 27.21 219.12 27.01C218.72 26.79 218.19 26.58 217.53 26.38L215.94 25.84C215.24 25.6 214.6 25.32 214.02 25C213.44 24.68 212.94 24.31 212.52 23.89C212.12 23.47 211.8 22.98 211.56 22.42C211.34 21.84 211.23 21.17 211.23 20.41C211.23 19.59 211.38 18.84 211.68 18.16C211.98 17.46 212.42 16.86 213 16.36C213.6 15.86 214.33 15.47 215.19 15.19C216.07 14.91 217.07 14.77 218.19 14.77ZM228.154 15.1H234.784C235.884 15.1 236.874 15.23 237.754 15.49C238.654 15.75 239.414 16.13 240.034 16.63C240.674 17.13 241.164 17.74 241.504 18.46C241.844 19.16 242.014 19.97 242.014 20.89C242.014 21.97 241.814 22.9 241.414 23.68C241.014 24.46 240.464 25.11 239.764 25.63C239.084 26.13 238.284 26.51 237.364 26.77C236.444 27.01 235.464 27.13 234.424 27.13H232.264V34H228.154V15.1ZM232.264 23.98H233.944C234.464 23.98 234.954 23.94 235.414 23.86C235.894 23.76 236.304 23.6 236.644 23.38C237.004 23.14 237.284 22.84 237.484 22.48C237.684 22.1 237.784 21.63 237.784 21.07C237.784 20.09 237.454 19.37 236.794 18.91C236.134 18.45 235.294 18.22 234.274 18.22H232.264V23.98ZM248.134 26.62H252.934L252.064 24.1C251.784 23.32 251.524 22.54 251.284 21.76C251.044 20.96 250.814 20.16 250.594 19.36H250.534C250.314 20.12 250.074 20.9 249.814 21.7C249.554 22.48 249.284 23.28 249.004 24.1L248.134 26.62ZM248.494 15.1H252.754L259.744 34H255.394L253.924 29.65H247.204L245.734 34H241.444L248.494 15.1Z" fill="#41B883"/>
<circle cx="25.3738" cy="25" r="25" fill="#99EBCD"/>
<circle cx="25.5691" cy="23.4375" r="23.4375" fill="#34495E"/>
</svg>
